# xmcd
#
# Track frame offsets:
# 150
# 22194
# 38227
# 54907
# 65382
# 92605
# 109499
# 125430
# 139532
# 161341
# 181755
# 203240
# 228939
# 249189
# 266613
# 282689
# 299102
# 315025
#
# Disc length: 4428 seconds
#
#
# Revision: 3
# Processed by: cddbd v1.5.1PL2 Copyright (c) Steve Scherf et al.
# Submitted via: FreeRIP 2.945 
#
DISCID=fe114a12
DTITLE=Cesaria Evora - Golden Songs
DYEAR=1900
DGENRE=
TTITLE0=Besame Mucho
TTITLE1=CinturhoTem Mele
TTITLE2=Sodade
TTITLE3=Quem Bn
TTITLE4=Mar E Morada De Sodade
TTITLE5=Petit Pays
TTITLE6=Regresso
TTITLE7=Sabine Largam'
TTITLE8=Coragem Irmon
TTITLE9=Tudo Tem Se Limite
TTITLE10=Mae Velha
TTITLE11=Luisza
TTITLE12=Miss Perfumado
TTITLE13=Nha Cancera Ka Tem Medida
TTITLE14=Sangue De Beirona
TTITLE15=Bo E Di Meu Cretcheu
TTITLE16=Areia De Salamansa
TTITLE17=Ausencia
EXTD=
EXTT0=
EXTT1=
EXTT2=
EXTT3=
EXTT4=
EXTT5=
EXTT6=
EXTT7=
EXTT8=
EXTT9=
EXTT10=
EXTT11=
EXTT12=
EXTT13=
EXTT14=
EXTT15=
EXTT16=
EXTT17=
PLAYORDER=
